<mxfile host="app.diagrams.net" modified="2023-06-30T15:24:12.141Z" agent="Mozilla/5.0 (Windows NT 10.0; Win64; x64) AppleWebKit/537.36 (KHTML, like Gecko) Chrome/114.0.0.0 Safari/537.36" etag="vmoiTGM4j2EXtRwMhC95" version="21.5.0" type="device">
  <diagram name="Page-1" id="jXk-JHS2APNfBvD4DgSc">
    <mxGraphModel dx="834" dy="238" grid="0" gridSize="10" guides="1" tooltips="1" connect="1" arrows="1" fold="1" page="0" pageScale="1" pageWidth="827" pageHeight="1169" math="0" shadow="0">
      <root>
        <mxCell id="0" />
        <mxCell id="1" parent="0" />
        <mxCell id="MPUSY4Vef7035SJt06cV-1" value="" style="rounded=1;whiteSpace=wrap;html=1;" vertex="1" parent="1">
          <mxGeometry x="-192" y="107" width="339" height="114" as="geometry" />
        </mxCell>
        <mxCell id="MPUSY4Vef7035SJt06cV-2" value="" style="ellipse;whiteSpace=wrap;html=1;aspect=fixed;" vertex="1" parent="1">
          <mxGeometry x="-14" y="258" width="51" height="51" as="geometry" />
        </mxCell>
        <mxCell id="MPUSY4Vef7035SJt06cV-3" value="" style="rhombus;whiteSpace=wrap;html=1;" vertex="1" parent="1">
          <mxGeometry x="138" y="252" width="73" height="67" as="geometry" />
        </mxCell>
        <mxCell id="MPUSY4Vef7035SJt06cV-4" value="10" style="rounded=1;whiteSpace=wrap;html=1;" vertex="1" parent="1">
          <mxGeometry x="49" y="254" width="78" height="55" as="geometry" />
        </mxCell>
        <mxCell id="MPUSY4Vef7035SJt06cV-6" style="edgeStyle=orthogonalEdgeStyle;rounded=0;orthogonalLoop=1;jettySize=auto;html=1;entryX=0.443;entryY=0.999;entryDx=0;entryDy=0;entryPerimeter=0;" edge="1" parent="1" source="MPUSY4Vef7035SJt06cV-5" target="MPUSY4Vef7035SJt06cV-2">
          <mxGeometry relative="1" as="geometry" />
        </mxCell>
        <mxCell id="MPUSY4Vef7035SJt06cV-5" value="Actor" style="shape=umlActor;verticalLabelPosition=bottom;verticalAlign=top;html=1;outlineConnect=0;" vertex="1" parent="1">
          <mxGeometry x="-24" y="409" width="30" height="60" as="geometry" />
        </mxCell>
        <mxCell id="MPUSY4Vef7035SJt06cV-8" style="edgeStyle=orthogonalEdgeStyle;rounded=0;orthogonalLoop=1;jettySize=auto;html=1;entryX=0.59;entryY=0.999;entryDx=0;entryDy=0;entryPerimeter=0;" edge="1" parent="1" source="MPUSY4Vef7035SJt06cV-7" target="MPUSY4Vef7035SJt06cV-2">
          <mxGeometry relative="1" as="geometry" />
        </mxCell>
        <mxCell id="MPUSY4Vef7035SJt06cV-7" value="Actor" style="shape=umlActor;verticalLabelPosition=bottom;verticalAlign=top;html=1;outlineConnect=0;" vertex="1" parent="1">
          <mxGeometry x="138" y="413" width="30" height="60" as="geometry" />
        </mxCell>
        <mxCell id="MPUSY4Vef7035SJt06cV-10" style="edgeStyle=orthogonalEdgeStyle;rounded=0;orthogonalLoop=1;jettySize=auto;html=1;" edge="1" parent="1" source="MPUSY4Vef7035SJt06cV-9" target="MPUSY4Vef7035SJt06cV-3">
          <mxGeometry relative="1" as="geometry" />
        </mxCell>
        <mxCell id="MPUSY4Vef7035SJt06cV-9" value="Actor" style="shape=umlActor;verticalLabelPosition=bottom;verticalAlign=top;html=1;outlineConnect=0;" vertex="1" parent="1">
          <mxGeometry x="223" y="409" width="30" height="60" as="geometry" />
        </mxCell>
        <mxCell id="MPUSY4Vef7035SJt06cV-11" value="" style="rounded=1;whiteSpace=wrap;html=1;" vertex="1" parent="1">
          <mxGeometry x="-4" y="569" width="120" height="60" as="geometry" />
        </mxCell>
        <mxCell id="MPUSY4Vef7035SJt06cV-12" value="Actor" style="shape=umlActor;verticalLabelPosition=bottom;verticalAlign=top;html=1;outlineConnect=0;" vertex="1" parent="1">
          <mxGeometry x="-4" y="739" width="30" height="60" as="geometry" />
        </mxCell>
        <mxCell id="MPUSY4Vef7035SJt06cV-13" value="Actor" style="shape=umlActor;verticalLabelPosition=bottom;verticalAlign=top;html=1;outlineConnect=0;" vertex="1" parent="1">
          <mxGeometry x="101" y="750" width="30" height="60" as="geometry" />
        </mxCell>
        <mxCell id="MPUSY4Vef7035SJt06cV-14" value="" style="ellipse;whiteSpace=wrap;html=1;aspect=fixed;fillColor=#d5e8d4;strokeColor=#82b366;" vertex="1" parent="1">
          <mxGeometry x="13" y="637" width="39" height="39" as="geometry" />
        </mxCell>
        <mxCell id="MPUSY4Vef7035SJt06cV-15" value="" style="rhombus;whiteSpace=wrap;html=1;fillColor=#f8cecc;strokeColor=#b85450;" vertex="1" parent="1">
          <mxGeometry x="94" y="637" width="44" height="32" as="geometry" />
        </mxCell>
        <mxCell id="MPUSY4Vef7035SJt06cV-16" value="" style="endArrow=none;html=1;rounded=0;" edge="1" parent="1">
          <mxGeometry width="50" height="50" relative="1" as="geometry">
            <mxPoint x="112" y="692" as="sourcePoint" />
            <mxPoint x="136" y="654" as="targetPoint" />
          </mxGeometry>
        </mxCell>
        <mxCell id="MPUSY4Vef7035SJt06cV-17" value="" style="endArrow=none;html=1;rounded=0;" edge="1" parent="1">
          <mxGeometry width="50" height="50" relative="1" as="geometry">
            <mxPoint x="25" y="692" as="sourcePoint" />
            <mxPoint x="49" y="654" as="targetPoint" />
          </mxGeometry>
        </mxCell>
      </root>
    </mxGraphModel>
  </diagram>
</mxfile>
